ffmpeg started on 2016-11-26 at 17:35:25
Report written to "Output/NVENCh264/results/ffmpeg/sintelll8000k.log"
Command line:
Tools/ffmpeg/ffmpeg -benchmark -y -i Input/y4m/sintel.y4m -c:v h264_nvenc -preset ll -b:v 8000k -an Output/NVENCh264/encoded/sintelll8000k.mkv
ffmpeg version N-82227-gdb23fde Copyright (c) 2000-2016 the FFmpeg developers
  built with gcc 5.4.0 (Ubuntu 5.4.0-6ubuntu1~16.04.2) 20160609
  configuration: --prefix=/home/jaroslav/ffmpeg_build --pkg-config-flags=--static --extra-cflags=-I/home/jaroslav/ffmpeg_build/include --extra-ldflags=-L/home/jaroslav/ffmpeg_build/lib --bindir=/home/jaroslav/bin --enable-gpl --enable-libass --enable-libfdk-aac --enable-libfreetype --enable-libmp3lame --enable-libopus --enable-libtheora --enable-libvorbis --enable-libvpx --enable-libx264 --enable-libx265 --enable-nvenc --enable-libmfx --enable-libxvid --enable-libgsm --enable-libopencore-amrnb --enable-version3 --enable-nonfree
  libavutil      55. 35.100 / 55. 35.100
  libavcodec     57. 66.101 / 57. 66.101
  libavformat    57. 57.100 / 57. 57.100
  libavdevice    57.  2.100 / 57.  2.100
  libavfilter     6. 66.100 /  6. 66.100
  libswscale      4.  3.100 /  4.  3.100
  libswresample   2.  4.100 /  2.  4.100
  libpostproc    54.  2.100 / 54.  2.100
Input #0, yuv4mpegpipe, from 'Input/y4m/sintel.y4m':
  Duration: 00:00:20.83, start: 0.000000, bitrate: 2057307 kb/s
    Stream #0:0: Video: rawvideo (I420 / 0x30323449), yuv420p(progressive), 4096x1744, SAR 1:1 DAR 256:109, 24 fps, 24 tbr, 24 tbn, 24 tbc
[h264_nvenc @ 0x37661c0] The variable bitrate rate-control requires the 'qmin' and/or 'qmax' option set.
Output #0, matroska, to 'Output/NVENCh264/encoded/sintelll8000k.mkv':
  Metadata:
    encoder         : Lavf57.57.100
    Stream #0:0: Video: h264 (h264_nvenc) (Main) (H264 / 0x34363248), yuv420p, 4096x1744 [SAR 1:1 DAR 256:109], q=-1--1, 8000 kb/s, 24 fps, 1k tbn, 24 tbc
    Metadata:
      encoder         : Lavc57.66.101 h264_nvenc
    Side data:
      cpb: bitrate max/min/avg: 0/0/8000000 buffer size: 16000000 vbv_delay: -1
Stream mapping:
  Stream #0:0 -> #0:0 (rawvideo (native) -> h264 (h264_nvenc))
Press [q] to stop, [?] for help
frame=   19 fps=0.0 q=0.0 size=       0kB time=00:00:00.00 bitrate=N/A speed=   0x    frame=   40 fps= 39 q=37.0 size=       1kB time=00:00:00.37 bitrate=  15.9kbits/s speed=0.365x    frame=   61 fps= 40 q=36.0 size=       1kB time=00:00:01.25 bitrate=   4.8kbits/s speed=0.813x    frame=   82 fps= 40 q=35.0 size=       1kB time=00:00:02.12 bitrate=   2.8kbits/s speed=1.04x    frame=  103 fps= 40 q=36.0 size=       1kB time=00:00:03.00 bitrate=   2.0kbits/s speed=1.17x    frame=  124 fps= 40 q=32.0 size=       1kB time=00:00:03.87 bitrate=   1.5kbits/s speed=1.26x    frame=  145 fps= 41 q=29.0 size=       1kB time=00:00:04.75 bitrate=   1.3kbits/s speed=1.33x    frame=  164 fps= 39 q=35.0 size=    4494kB time=00:00:05.54 bitrate=6642.3kbits/s speed=1.32x    frame=  165 fps= 22 q=35.0 size=    4494kB time=00:00:05.58 bitrate=6593.5kbits/s speed=0.751x    frame=  166 fps= 15 q=35.0 size=    4494kB time=00:00:05.62 bitrate=6544.3kbits/s speed=0.507x    frame=  167 fps= 14 q=34.0 size=    4494kB time=00:00:05.66 bitrate=6495.8kbits/s speed=0.461x    frame=  188 fps= 15 q=34.0 size=    4494kB time=00:00:06.54 bitrate=5627.1kbits/s speed=0.51x    frame=  209 fps= 16 q=31.0 size=    4494kB time=00:00:07.41 bitrate=4963.4kbits/s speed=0.556x    frame=  230 fps= 17 q=31.0 size=    4494kB time=00:00:08.29 bitrate=4439.7kbits/s speed=0.599x    frame=  250 fps= 17 q=33.0 size=    4494kB time=00:00:09.12 bitrate=4034.4kbits/s speed=0.624x    frame=  270 fps= 18 q=31.0 size=    9434kB time=00:00:09.95 bitrate=7759.9kbits/s speed=0.658x    frame=  291 fps= 19 q=28.0 size=    9434kB time=00:00:10.83 bitrate=7133.2kbits/s speed=0.692x    frame=  312 fps= 19 q=31.0 size=   10599kB time=00:00:11.70 bitrate=7415.5kbits/s speed=0.724x    frame=  332 fps= 20 q=29.0 size=   10599kB time=00:00:12.54 bitrate=6922.5kbits/s speed=0.752x    frame=  353 fps= 21 q=26.0 size=   10599kB time=00:00:13.41 bitrate=6471.0kbits/s speed=0.781x    frame=  374 fps= 21 q=26.0 size=   10599kB time=00:00:14.29 bitrate=6074.9kbits/s speed=0.808x    frame=  395 fps= 22 q=29.0 size=   10599kB time=00:00:15.16 bitrate=5724.4kbits/s speed=0.834x    frame=  416 fps= 22 q=26.0 size=   10599kB time=00:00:16.04 bitrate=5412.2kbits/s speed=0.858x    frame=  436 fps= 23 q=32.0 size=   15633kB time=00:00:16.87 bitrate=7588.5kbits/s speed=0.879x    frame=  457 fps= 23 q=31.0 size=   16941kB time=00:00:17.75 bitrate=7818.2kbits/s speed= 0.9x    frame=  478 fps= 24 q=30.0 size=   16941kB time=00:00:18.62 bitrate=7451.0kbits/s speed=0.921x    frame=  489 fps= 23 q=30.0 size=   16941kB time=00:00:19.08 bitrate=7272.1kbits/s speed=0.917x    frame=  497 fps= 23 q=30.0 size=   16941kB time=00:00:19.41 bitrate=7147.1kbits/s speed=0.91x    frame=  500 fps= 23 q=30.0 Lsize=   20295kB time=00:00:20.79 bitrate=7995.7kbits/s speed=0.969x    
video:20290kB audio:0kB subtitle:0kB other streams:0kB global headers:0kB muxing overhead: 0.023868%
bench: utime=0.896s
bench: maxrss=1194208kB
